<svg id="svg" version="1.1" width="400" height="400" xmlns="http://www.w3.org/2000/svg" xmlns:xlink="http://www.w3.org/1999/xlink" style="display: block;"><g id="svgg"><path id="path0" d="M189.222 11.178 L 189.222 21.557 178.443 21.557 L 167.665 21.557 167.665 31.936 L 167.665 42.315 126.148 42.315 L 84.631 42.315 84.631 53.094 L 84.631 63.872 74.251 63.872 L 63.872 63.872 63.872 74.651 L 63.872 85.429 74.251 85.429 L 84.631 85.429 84.631 95.409 L 84.631 105.389 74.251 105.389 L 63.872 105.389 63.872 115.768 L 63.872 126.148 53.094 126.148 L 42.315 126.148 42.315 137.325 L 42.315 148.503 53.094 148.503 L 63.872 148.503 63.872 168.862 L 63.872 189.222 53.094 189.222 L 42.315 189.222 42.315 210.778 L 42.315 232.335 53.094 232.335 L 63.872 232.335 63.872 273.453 L 63.872 314.571 53.094 314.571 L 42.315 314.571 42.315 325.349 L 42.315 336.128 31.936 336.128 L 21.557 336.128 21.557 346.507 L 21.557 356.886 11.178 356.886 L 0.798 356.886 0.798 368.064 L 0.798 379.242 11.178 379.242 L 21.557 379.242 21.557 389.222 L 21.557 399.202 200.000 399.202 L 378.443 399.202 378.443 389.222 L 378.443 379.242 388.822 379.242 L 399.202 379.242 399.202 368.064 L 399.202 356.886 388.822 356.886 L 378.443 356.886 378.443 346.507 L 378.443 336.128 368.064 336.128 L 357.685 336.128 357.685 284.232 L 357.685 232.335 368.064 232.335 L 378.443 232.335 378.443 200.399 L 378.443 168.463 368.064 168.463 L 357.685 168.463 357.685 136.926 L 357.685 105.389 347.305 105.389 L 336.926 105.389 336.926 95.010 L 336.926 84.631 326.148 84.631 L 315.369 84.631 315.369 74.251 L 315.369 63.872 294.611 63.872 L 273.852 63.872 273.852 53.094 L 273.852 42.315 253.094 42.315 L 232.335 42.315 232.335 31.936 L 232.335 21.557 221.557 21.557 L 210.778 21.557 210.778 11.178 L 210.778 0.798 200.000 0.798 L 189.222 0.798 189.222 11.178 M210.778 32.735 L 210.778 43.114 221.158 43.114 L 231.537 43.114 231.537 53.493 L 231.537 63.872 252.272 63.872 L 273.008 63.872 273.230 74.451 L 273.453 85.030 294.411 85.243 L 315.369 85.456 315.369 95.822 L 315.369 106.188 325.739 106.188 L 336.109 106.188 336.318 137.525 L 336.527 168.862 346.707 169.086 L 356.886 169.309 356.886 200.423 L 356.886 231.537 336.128 231.537 L 315.369 231.537 315.369 241.892 L 315.369 252.248 325.549 252.471 L 335.729 252.695 335.935 294.387 L 336.142 336.080 346.314 336.304 L 356.487 336.527 356.710 346.707 L 356.934 356.886 367.289 356.886 L 377.645 356.886 377.645 367.665 L 377.645 378.443 200.000 378.443 L 22.355 378.443 22.355 368.088 L 22.355 357.732 32.535 357.509 L 42.715 357.285 42.937 346.707 L 43.160 336.128 53.516 336.128 L 63.872 336.128 63.872 325.772 L 63.872 315.416 74.451 315.193 L 85.030 314.970 85.243 294.435 L 85.456 273.900 95.622 273.676 L 105.788 273.453 106.012 263.297 L 106.235 253.140 95.632 252.918 L 85.030 252.695 84.807 242.116 L 84.584 231.537 74.215 231.537 L 63.846 231.537 64.059 210.579 L 64.271 189.621 85.230 189.408 L 106.188 189.195 106.188 179.251 L 106.188 169.308 95.609 169.085 L 85.030 168.862 84.807 158.706 L 84.583 148.550 74.427 148.327 L 64.271 148.104 64.049 137.525 L 63.826 126.946 95.386 126.946 L 126.946 126.946 126.946 116.590 L 126.946 106.234 116.367 106.011 L 105.788 105.788 105.565 95.609 L 105.342 85.429 94.986 85.429 L 84.631 85.429 84.631 74.651 L 84.631 63.872 126.547 63.872 L 168.463 63.872 168.463 53.493 L 168.463 43.114 178.842 43.114 L 189.222 43.114 189.222 32.735 L 189.222 22.355 200.000 22.355 L 210.778 22.355 210.778 32.735 M253.094 169.261 L 253.094 210.778 263.074 210.778 L 273.054 210.778 273.054 169.261 L 273.054 127.745 263.074 127.745 L 253.094 127.745 253.094 169.261 M294.005 169.062 L 294.212 210.379 304.391 210.603 L 314.571 210.826 314.571 169.285 L 314.571 127.745 304.184 127.745 L 293.798 127.745 294.005 169.062 M232.069 252.828 C 231.776 253.120,231.537 257.971,231.537 263.606 L 231.537 273.852 252.295 273.852 L 273.054 273.852 273.054 263.074 L 273.054 252.295 252.828 252.295 C 241.703 252.295,232.362 252.535,232.069 252.828 " stroke="none" fill="#000000" fill-rule="evenodd"></path><path id="path1" d="M252.471 116.367 L 252.695 126.547 262.874 126.770 L 273.054 126.994 273.054 116.591 L 273.054 106.188 262.651 106.188 L 252.248 106.188 252.471 116.367 M294.611 116.567 L 294.611 126.946 304.591 126.946 L 314.571 126.946 314.571 116.567 L 314.571 106.188 304.591 106.188 L 294.611 106.188 294.611 116.567 M231.537 168.862 L 231.537 210.778 241.517 210.778 L 251.497 210.778 251.497 168.862 L 251.497 126.946 241.517 126.946 L 231.537 126.946 231.537 168.862 M315.369 168.862 L 315.369 210.778 325.302 210.778 C 331.591 210.778,335.432 210.460,335.771 209.911 C 336.066 209.434,336.041 190.571,335.716 167.995 L 335.124 126.946 325.247 126.946 L 315.369 126.946 315.369 168.862 M252.295 221.557 L 252.295 231.537 262.675 231.537 L 273.054 231.537 273.054 221.557 L 273.054 211.577 262.675 211.577 L 252.295 211.577 252.295 221.557 M294.611 221.557 L 294.611 231.537 304.591 231.537 L 314.571 231.537 314.571 221.557 L 314.571 211.577 304.591 211.577 L 294.611 211.577 294.611 221.557 M210.778 326.148 L 210.778 357.685 221.158 357.685 L 231.537 357.685 231.537 367.665 L 231.537 377.645 273.453 377.645 L 315.369 377.645 315.369 367.665 L 315.369 357.685 325.302 357.685 C 331.476 357.685,335.434 357.362,335.761 356.833 C 336.051 356.365,336.025 346.844,335.704 335.675 L 335.120 315.369 324.845 315.369 L 314.571 315.369 314.571 304.990 L 314.571 294.611 262.675 294.611 L 210.778 294.611 210.778 326.148 " stroke="none" fill="#ffffff" fill-rule="evenodd"></path><path id="path2" d="M273.586 252.828 C 273.293 253.120,273.054 257.971,273.054 263.606 L 273.054 273.852 283.433 273.852 L 293.812 273.852 293.812 263.074 L 293.812 252.295 283.965 252.295 C 278.550 252.295,273.879 252.535,273.586 252.828 " stroke="none" fill="#ff0016" fill-rule="evenodd"></path><path id="path3" d="M189.844 32.934 L 189.621 43.513 179.441 43.736 L 169.261 43.960 169.261 53.916 L 169.261 63.872 200.000 63.872 L 230.739 63.872 230.739 53.916 L 230.739 43.960 220.559 43.736 L 210.379 43.513 210.156 32.934 L 209.934 22.355 200.000 22.355 L 190.066 22.355 189.844 32.934 M85.429 74.651 L 85.429 84.631 95.808 84.631 L 106.188 84.631 106.188 94.883 L 106.188 105.136 121.885 105.662 C 130.518 105.951,139.860 106.188,142.643 106.188 L 147.705 106.188 147.705 95.808 L 147.705 85.429 158.084 85.429 L 168.463 85.429 168.463 75.050 L 168.463 64.671 126.946 64.671 L 85.429 64.671 85.429 74.651 M294.125 116.567 C 294.125 122.495,294.251 124.920,294.404 121.956 C 294.558 118.992,294.558 114.142,294.404 111.178 C 294.251 108.214,294.125 110.639,294.125 116.567 M314.884 116.567 C 314.884 122.495,315.009 124.920,315.163 121.956 C 315.317 118.992,315.317 114.142,315.163 111.178 C 315.009 108.214,314.884 110.639,314.884 116.567 M251.863 127.146 C 251.653 127.695,251.574 146.826,251.689 169.661 L 251.896 211.178 262.275 211.212 L 272.655 211.247 262.461 210.990 L 252.268 210.732 252.481 168.440 C 252.599 145.179,252.594 126.147,252.470 126.148 C 252.346 126.148,252.073 126.597,251.863 127.146 M64.671 137.725 L 64.671 147.705 75.050 147.705 L 85.429 147.705 85.429 158.084 L 85.429 168.463 95.808 168.463 L 106.188 168.463 106.188 158.084 L 106.188 147.705 116.567 147.705 L 126.946 147.705 126.946 137.725 L 126.946 127.745 95.808 127.745 L 64.671 127.745 64.671 137.725 M335.678 148.503 C 335.678 160.140,335.790 164.900,335.926 159.082 C 336.062 153.263,336.062 143.743,335.926 137.924 C 335.790 132.106,335.678 136.866,335.678 148.503 M64.671 210.778 L 64.671 231.537 75.050 231.537 L 85.429 231.537 85.429 241.916 L 85.429 252.295 95.808 252.295 L 106.188 252.295 106.188 221.158 L 106.188 190.020 85.429 190.020 L 64.671 190.020 64.671 210.778 M293.986 221.357 L 294.159 231.936 294.409 221.756 L 294.658 211.577 304.591 211.577 L 314.523 211.577 314.773 221.756 L 315.022 231.936 315.196 221.357 L 315.369 210.778 304.591 210.778 L 293.812 210.778 293.986 221.357 M127.340 253.269 C 127.135 253.831,126.872 258.603,126.757 263.872 L 126.547 273.453 116.367 273.677 L 106.188 273.900 106.188 305.014 L 106.188 336.128 126.946 336.128 L 147.705 336.128 147.705 325.749 L 147.705 315.369 158.084 315.369 L 168.463 315.369 168.463 294.635 L 168.463 273.900 158.283 273.677 L 148.104 273.453 147.705 263.074 L 147.305 252.695 137.509 252.470 C 130.109 252.301,127.622 252.496,127.340 253.269 M210.170 315.156 L 209.980 336.101 189.421 336.314 L 168.862 336.527 168.640 347.106 L 168.417 357.685 158.061 357.685 L 147.705 357.685 147.705 367.564 L 147.705 377.444 230.775 378.040 C 276.464 378.368,314.068 378.413,314.341 378.141 C 314.614 377.868,296.094 377.645,273.187 377.645 L 231.537 377.645 231.537 367.665 L 231.537 357.685 221.167 357.685 L 210.797 357.685 210.579 325.948 C 210.410 301.473,210.317 299.004,210.170 315.156 M314.884 304.990 C 314.884 310.918,315.009 313.343,315.163 310.379 C 315.317 307.415,315.317 302.565,315.163 299.601 C 315.009 296.637,314.884 299.062,314.884 304.990 M64.671 326.148 L 64.671 336.128 74.651 336.128 L 84.631 336.128 84.631 326.148 L 84.631 316.168 74.651 316.168 L 64.671 316.168 64.671 326.148 M335.642 326.547 C 335.642 332.475,335.768 334.900,335.921 331.936 C 336.075 328.972,336.075 324.122,335.921 321.158 C 335.768 318.194,335.642 320.619,335.642 326.547 M43.912 347.305 L 43.912 357.685 53.892 357.685 L 63.872 357.685 63.872 347.305 L 63.872 336.926 53.892 336.926 L 43.912 336.926 43.912 347.305 M325.549 357.509 L 315.369 357.732 315.369 367.689 L 315.369 377.645 346.507 377.645 L 377.645 377.645 377.645 367.690 L 377.645 357.736 356.687 357.510 C 345.160 357.387,331.148 357.386,325.549 357.509 " stroke="none" fill="#ffba3e" fill-rule="evenodd"></path><path id="path4" d="M189.394 32.535 L 189.222 43.114 178.842 43.114 L 168.463 43.114 168.463 53.493 L 168.463 63.872 126.547 63.872 L 84.631 63.872 84.631 74.651 L 84.631 85.429 94.986 85.429 L 105.342 85.429 105.565 95.609 L 105.788 105.788 116.367 106.011 L 126.946 106.234 126.946 116.590 L 126.946 126.946 95.386 126.946 L 63.826 126.946 64.049 137.525 L 64.271 148.104 74.427 148.327 L 84.583 148.550 84.807 158.706 L 85.030 168.862 95.609 169.085 L 106.188 169.308 106.188 179.251 L 106.188 189.195 85.230 189.408 L 64.271 189.621 64.251 210.778 L 64.230 231.936 64.464 210.978 L 64.697 190.020 85.442 190.020 L 106.188 190.020 106.188 221.158 L 106.188 252.295 95.832 252.295 L 85.475 252.295 85.217 241.915 L 84.958 231.535 84.994 242.115 L 85.030 252.695 95.632 252.918 L 106.235 253.140 106.012 263.297 L 105.788 273.453 95.622 273.676 L 85.456 273.900 85.243 294.435 L 85.030 314.970 74.451 315.193 L 63.872 315.416 63.872 325.772 L 63.872 336.128 53.516 336.128 L 43.160 336.128 42.937 346.707 L 42.715 357.285 32.535 357.509 L 22.355 357.732 22.355 368.088 L 22.355 378.443 127.146 378.251 C 184.780 378.145,212.984 377.962,189.820 377.844 L 147.705 377.631 147.705 367.658 L 147.705 357.685 158.061 357.685 L 168.417 357.685 168.640 347.106 L 168.862 336.527 189.421 336.314 L 209.980 336.101 209.980 315.356 L 209.980 294.611 262.675 294.611 L 315.369 294.611 315.369 304.946 L 315.369 315.280 325.759 315.524 L 336.149 315.768 335.939 284.232 L 335.729 252.695 325.549 252.471 L 315.369 252.248 315.369 241.892 L 315.369 231.537 336.128 231.537 L 356.886 231.537 356.886 200.444 L 356.886 169.350 346.506 169.106 L 336.125 168.862 336.126 189.820 L 336.128 210.778 325.749 210.778 L 315.369 210.778 315.369 168.818 L 315.369 126.857 325.750 127.101 L 336.131 127.345 336.129 116.766 L 336.128 106.188 325.749 106.188 L 315.369 106.188 315.369 95.822 L 315.369 85.456 294.411 85.243 L 273.453 85.030 273.230 74.451 L 273.008 63.872 252.272 63.872 L 231.537 63.872 231.537 53.493 L 231.537 43.114 221.181 43.114 L 210.825 43.114 210.567 32.934 L 210.310 22.754 210.344 33.134 L 210.379 43.513 220.559 43.736 L 230.739 43.960 230.739 53.916 L 230.739 63.872 200.000 63.872 L 169.261 63.872 169.261 53.892 L 169.261 43.912 179.267 43.912 C 191.088 43.912,190.152 44.978,189.819 31.892 L 189.567 21.956 189.394 32.535 M168.463 75.050 L 168.463 85.429 158.084 85.429 L 147.705 85.429 147.705 95.808 L 147.705 106.188 142.643 106.188 C 139.860 106.188,130.518 105.951,121.885 105.662 L 106.188 105.136 106.188 94.883 L 106.188 84.631 95.808 84.631 L 85.429 84.631 85.429 74.651 L 85.429 64.671 126.946 64.671 L 168.463 64.671 168.463 75.050 M273.054 116.567 L 273.054 126.946 262.675 126.946 L 252.295 126.946 252.295 116.567 L 252.295 106.188 262.675 106.188 L 273.054 106.188 273.054 116.567 M315.369 116.567 L 315.369 126.946 304.591 126.946 L 293.812 126.946 293.812 116.567 L 293.812 106.188 304.591 106.188 L 315.369 106.188 315.369 116.567 M252.295 168.862 L 252.295 210.778 241.916 210.778 L 231.537 210.778 231.537 168.862 L 231.537 126.946 241.916 126.946 L 252.295 126.946 252.295 168.862 M126.946 137.725 L 126.946 147.705 116.567 147.705 L 106.188 147.705 106.188 158.084 L 106.188 168.463 95.808 168.463 L 85.429 168.463 85.429 158.084 L 85.429 147.705 75.050 147.705 L 64.671 147.705 64.671 137.725 L 64.671 127.745 95.808 127.745 L 126.946 127.745 126.946 137.725 M273.054 179.641 L 273.054 231.537 262.548 231.537 L 252.042 231.537 252.568 215.840 C 252.857 207.206,253.094 183.853,253.094 163.943 L 253.094 127.745 263.074 127.745 L 273.054 127.745 273.054 179.641 M314.571 163.943 C 314.571 183.853,314.807 207.206,315.097 215.840 L 315.622 231.537 304.734 231.537 L 293.845 231.537 293.824 179.641 L 293.804 127.745 304.187 127.745 L 314.571 127.745 314.571 163.943 M147.705 263.074 L 148.104 273.453 158.283 273.677 L 168.463 273.900 168.463 294.635 L 168.463 315.369 158.084 315.369 L 147.705 315.369 147.705 325.749 L 147.705 336.128 126.946 336.128 L 106.188 336.128 106.188 305.014 L 106.188 273.900 116.367 273.677 L 126.547 273.453 126.757 263.872 C 127.036 251.120,126.011 252.207,137.509 252.470 L 147.305 252.695 147.705 263.074 M293.812 263.094 L 293.812 273.852 262.675 273.852 L 231.537 273.852 231.537 263.606 C 231.537 257.971,231.776 253.121,232.069 252.828 C 232.362 252.535,246.374 252.305,263.207 252.315 L 293.812 252.335 293.812 263.094 M84.631 326.148 L 84.631 336.128 74.651 336.128 L 64.671 336.128 64.671 326.148 L 64.671 316.168 74.651 316.168 L 84.631 316.168 84.631 326.148 M336.128 346.882 L 336.128 357.685 357.086 357.510 C 368.613 357.414,373.294 357.224,367.489 357.088 L 356.934 356.840 356.710 346.684 L 356.487 336.527 346.307 336.303 L 336.128 336.080 336.128 346.882 M63.872 347.305 L 63.872 357.685 53.892 357.685 L 43.912 357.685 43.912 347.305 L 43.912 336.926 53.892 336.926 L 63.872 336.926 63.872 347.305 M329.887 378.242 C 338.530 378.371,352.902 378.371,361.823 378.243 C 370.745 378.114,363.673 378.009,346.108 378.009 C 328.543 378.008,321.244 378.114,329.887 378.242 " stroke="none" fill="#469e2f" fill-rule="evenodd"></path></g></svg>