<?xml version="1.0" encoding="utf-8"?>
<!-- Generator: Adobe Illustrator 15.0.0, SVG Export Plug-In . SVG Version: 6.00 Build 0)  -->
<!DOCTYPE svg PUBLIC "-//W3C//DTD SVG 1.1//EN" "http://www.w3.org/Graphics/SVG/1.1/DTD/svg11.dtd">
<svg version="1.1" id="svg" xmlns="http://www.w3.org/2000/svg" xmlns:xlink="http://www.w3.org/1999/xlink" x="0px" y="0px"
	 width="400px" height="400px" viewBox="0 0 400 400" enable-background="new 0 0 400 400" xml:space="preserve">
<g id="svgg">
	<path id="path4" fill="#BBBBBB" d="M120.4,55.2v18.4h-20.2H80v18v18H59.8H39.6v54.6v54.6V255.4L80,255.6l40.4,12.15h16.85
		L201,255.2h80.6l20.608,0.399h20.208l40.204-0.6l-0.22-36.2v-54.6v-54.6h-20.2H322v-18v-18h-20.2h-20.2V55.2V36.8H201h-80.6V55.2
		 M160.8,164.6v18.2h-20.2h-20.2v-18.2v-18.2h20.2h20.2V164.6 M282,164.6v18.2h-20.6H240.8v-18.2v-18.2H261.4H282V164.6"/>
	<path id="path3" fill="#999999" d="M281.785,55.2c0,10.23,0.051,14.415,0.115,9.3c0.062-5.115,0.062-13.485,0-18.6
		C281.836,40.785,281.785,44.97,281.785,55.2 M322.096,91.7L322,109.6l20.3-0.096l20.3-0.096l-20.096-0.108l-20.096-0.107
		L322.3,91.496L322.191,73.8L322.096,91.7 M49.9,109.5c5.555,0.062,14.645,0.062,20.2,0c5.555-0.063,1.01-0.114-10.1-0.114
		S44.345,109.437,49.9,109.5 M240.984,164.6c0,10.12,0.052,14.203,0.115,9.073c0.063-5.131,0.063-13.411,0-18.4
		C241.036,150.283,240.984,154.48,240.984,164.6 M39.6,255.4 M322.416,255.6h-20.208H282v18.2V292h-80.8h-80.8v-18.2v-18.2h-20.2H80
		 M39.6,255.4V292h20.2H80v18v18h20.2h20.2v18.2v18.2H201h80.6v-18.2V328h20.2H322v-18v-18h20.2h20.2v-36.6l0.22-0.4H342.52"/>
	<path id="path0" fill="#333333" d="M120.4,164.6v18.2h20h20v-18.2v-18.2h-20h-20V164.6 M241.2,164.6v18.2h20.2H281.6v-18.2v-18.2
		H261.4h-20.2V164.6 M80,310v18h20.2h20.2v-18v-18h-20.2H80V310 M282,310v18h20h20v-18v-18h-20h-20V310 M120.4,273.8V292H201h80.6
		v-18.2v-18.2H201h-80.6V273.8"/>
	<path id="path1" fill="#333333" d="M160.584,164.6c0,10.12,0.052,14.203,0.116,9.073c0.063-5.131,0.063-13.411,0-18.4
		C160.636,150.283,160.584,154.48,160.584,164.6 M89.9,255.5 M291.9,255.5c5.555,0.062,14.645,0.062,20.199,0
		c5.556-0.062,1.011-0.113-10.1-0.113C290.891,255.387,286.346,255.438,291.9,255.5"/>
	<path id="path2" fill="#666666" d="M120,18.4v18.4h-20H80v18.4v18.4H59.8H39.6v17.8v17.8H19.8H0V200.6V292h19.8h19.8v18.2v18.2
		h20.2H80V346.6v18.2h20h20V382.4V400h81h81v-17.6V364.8h20.2h20.2v-18.2V328.4H342.6h20.2v-18.2V292H381.4H400v-91.4V109.2h-18.6
		H362.8V91.4V73.6h-20.2H322.4V55.2V36.8h-20.2H282V18.4V0h-81h-81V18.4 M282,55.196v18.397l20.1,0.103L322.2,73.8l0.104,17.7
		l0.104,17.7h19.996H362.4V200.6V292h-20.2H322v18v18h-20.2h-20.2v18.2v18.2H201h-80.6v-18.2V328h-20.2H80v-18v-18H59.799H39.598
		l0.101-91.3l0.101-91.3l20.1-0.104l20.1-0.103V91.396V73.6h20.2h20.2V55.2V36.8h80.8H282V55.196 M281.784,164.6
		c0,10.12,0.052,14.203,0.116,9.073c0.062-5.131,0.062-13.411,0-18.4C281.836,150.283,281.784,154.48,281.784,164.6 M90.128,219.1
		 M281.6,236.995 M322.212,255.4 M322.212,255.4 M322.212,255.4 M281.6,255.198L200.7,255.3l-80.9,0.103l80.896,0.099l80.896,0.099
		L281.7,273.9c0.06,10.064,0.151,1.875,0.204-18.2"/>
</g>
</svg>
